<svg width="129" height="17" viewBox="0 0 129 17" fill="none" xmlns="http://www.w3.org/2000/svg">
<path d="M22.0052 16.4497H19.213V1.10113H24.9476C25.64 1.09063 26.3262 1.23323 26.9581 1.51873C27.539 1.78313 28.0619 2.16013 28.4968 2.62813C28.9218 3.08403 29.2581 3.61553 29.4885 4.19563C29.8913 5.18973 29.9529 6.29043 29.664 7.32373C29.5458 7.75023 29.3684 8.15763 29.1362 8.53393C28.6409 9.32933 27.9357 9.97083 27.0992 10.3864C27.8457 11.409 28.588 12.4217 29.3265 13.4242C30.0644 14.4268 30.811 15.4354 31.5655 16.4497H29.3721C29.1922 16.4455 29.0142 16.4126 28.8436 16.3525C28.6237 16.2796 28.4136 16.1772 28.2202 16.0481C27.9806 15.8923 27.7552 15.7146 27.5482 15.5173C27.2957 15.2691 27.069 14.9957 26.8719 14.7017L24.0902 10.9314H22.0052V16.4497ZM25.0339 8.10573C25.3006 8.10423 25.5636 8.04383 25.8051 7.92883C26.0465 7.81873 26.2646 7.66183 26.4457 7.46703C26.6286 7.27243 26.7752 7.04583 26.8774 6.79833C26.9828 6.54993 27.037 6.28273 27.037 6.01263C27.0376 5.73803 26.9834 5.46613 26.8774 5.21293C26.774 4.96603 26.628 4.73953 26.4457 4.54423C26.2639 4.35043 26.0459 4.19413 25.8051 4.08423C25.5642 3.96843 25.3006 3.90793 25.0339 3.90723H22.0052V8.09523L25.0339 8.10573Z" fill="white"/>
<path d="M39.0242 1.10059H41.5558L48.2421 16.4497H46.5008C46.1164 16.4531 45.7382 16.3456 45.4124 16.1401C45.0865 15.9348 44.8297 15.6358 44.6751 15.2819L43.7665 13.2047H36.8136L35.9179 15.2819C35.8446 15.4548 35.7424 15.6144 35.6174 15.7543C35.4892 15.8966 35.342 16.0204 35.1806 16.1223C35.0162 16.2274 34.8375 16.3084 34.6509 16.363C34.4655 16.4205 34.2727 16.4497 34.0793 16.4497H32.3386L39.0242 1.10059ZM38.0522 10.3862H42.5284L40.5315 5.73809C40.4459 5.54979 40.383 5.35189 40.3436 5.14889C40.3122 4.97189 40.2913 4.83389 40.2839 4.74199C40.2709 4.88049 40.2494 5.01809 40.221 5.15419C40.1804 5.35409 40.1219 5.54979 40.0443 5.73809L38.0522 10.3862Z" fill="white"/>
<path d="M56.2804 16.4497H53.4716V9.94751C53.4753 9.73471 53.4241 9.52451 53.3231 9.33731C53.2024 9.12661 53.0712 8.92281 52.9283 8.72691L47.3157 1.10121H49.4598C49.8904 1.09191 50.3166 1.18731 50.7028 1.37901C51.0644 1.56551 51.3712 1.84211 51.5941 2.18221L54.6136 6.28521C54.7016 6.40411 54.7676 6.53851 54.8076 6.68141C54.8427 6.81601 54.8618 6.90271 54.8686 6.93811C54.8821 6.85281 54.9024 6.76881 54.9289 6.68681C54.9714 6.54061 55.0417 6.40421 55.1365 6.28521L58.1449 2.19291C58.3629 1.84461 58.6715 1.56171 59.037 1.37361C59.423 1.18541 59.849 1.09211 60.278 1.10121H62.449L56.8212 8.73741C56.7368 8.85251 56.6604 8.95681 56.5994 9.05421C56.5354 9.14531 56.4768 9.23981 56.4226 9.33731C56.374 9.42901 56.3376 9.52651 56.3124 9.62741C56.2859 9.73211 56.2736 9.83961 56.2748 9.94751L56.2804 16.4497Z" fill="white"/>
<path d="M77.889 9.0819V14.9787C77.543 15.2985 77.153 15.5671 76.731 15.7765C76.299 15.9902 75.846 16.1588 75.379 16.2795C74.888 16.4048 74.389 16.4903 73.884 16.5355C73.371 16.5814 72.848 16.6044 72.319 16.6044C71.267 16.6118 70.224 16.402 69.258 15.9884C68.325 15.5927 67.476 15.0235 66.757 14.3116C66.041 13.5991 65.469 12.756 65.073 11.8283C64.665 10.8623 64.455 9.8252 64.455 8.7775C64.455 7.7298 64.665 6.6927 65.073 5.7267C65.47 4.7959 66.045 3.9504 66.764 3.2363C67.484 2.5248 68.332 1.9558 69.265 1.5596C71.202 0.751733 73.381 0.740293 75.326 1.5277C76.243 1.9087 77.078 2.4577 77.79 3.1463L77.684 3.2434C77.558 3.3699 77.411 3.4728 77.25 3.5469C77.084 3.6161 76.906 3.6503 76.728 3.6475C76.481 3.6492 76.241 3.5745 76.039 3.4339C75.508 3.0704 74.927 2.7845 74.313 2.5851C73.671 2.3794 73 2.2769 72.326 2.2815C71.74 2.2792 71.156 2.3562 70.592 2.5109C70.046 2.6589 69.522 2.8797 69.036 3.1675C68.555 3.4504 68.11 3.7912 67.714 4.1823C67.316 4.5743 66.974 5.0164 66.694 5.4972C66.409 5.9859 66.187 6.5083 66.034 7.0522C65.875 7.6133 65.796 8.1937 65.797 8.7766C65.796 9.3605 65.877 9.9417 66.04 10.5027C66.356 11.5916 66.951 12.58 67.767 13.3709C68.173 13.7638 68.625 14.1053 69.114 14.3875C69.612 14.6741 70.146 14.8948 70.7 15.0441C71.267 15.1983 71.854 15.2755 72.444 15.2735C73.172 15.2759 73.9 15.1774 74.601 14.9805C75.299 14.7822 75.964 14.4849 76.576 14.0981V10.4162H75.213C75.037 10.4194 74.864 10.3862 74.702 10.3191C74.54 10.252 74.394 10.1522 74.273 10.0262C74.162 9.9067 74.075 9.767 74.016 9.615C73.956 9.4577 73.926 9.2908 73.926 9.1226V9.0802L77.889 9.0819Z" fill="white"/>
<path d="M83.719 16.4498H82.367V1.10072H87.792C88.376 1.09612 88.953 1.21062 89.491 1.43692C90.004 1.65482 90.472 1.96762 90.867 2.35882C91.263 2.75062 91.579 3.21442 91.797 3.72472C92.026 4.25232 92.141 4.82092 92.139 5.39492C92.139 5.91762 92.047 6.43622 91.867 6.92722C91.694 7.40752 91.442 7.85652 91.122 8.25602C90.804 8.64772 90.416 8.97652 89.976 9.22552C89.528 9.47942 89.031 9.63792 88.517 9.69092L93.64 16.4498H93.003C92.261 16.4498 91.711 16.1774 91.36 15.6377L86.852 9.69092H83.719V16.4498ZM83.719 2.43842V8.35162H87.792C88.191 8.35402 88.588 8.27592 88.955 8.12152C89.311 7.97292 89.633 7.75782 89.906 7.48812C90.179 7.21742 90.397 6.89792 90.549 6.54692C90.708 6.18352 90.79 5.79112 90.786 5.39492C90.79 5.00112 90.708 4.61102 90.549 4.25022C90.24 3.54222 89.67 2.97812 88.955 2.67372C88.588 2.51612 88.193 2.43592 87.792 2.43842H83.719Z" fill="white"/>
<path d="M98.426 16.4497H97.191V1.10059H98.426V16.4497Z" fill="white"/>
<path d="M103.677 16.4496V1.10064H109.301C110.657 1.09534 111.988 1.45784 113.155 2.14994C114.289 2.82154 115.235 3.77054 115.905 4.90824C116.593 6.08194 116.956 7.41874 116.956 8.78044C116.956 10.1421 116.593 11.4791 115.905 12.6527C115.571 13.2187 115.168 13.7407 114.704 14.2061C113.77 15.1451 112.607 15.8237 111.333 16.1754C110.672 16.3603 109.987 16.4525 109.301 16.4496H103.677ZM109.301 15.1102C110.149 15.117 110.988 14.9478 111.769 14.613C112.516 14.2922 113.196 13.8324 113.774 13.2578C114.351 12.6809 114.811 11.997 115.13 11.2442C115.457 10.4643 115.625 9.62664 115.625 8.78044C115.625 7.93424 115.457 7.09664 115.13 6.31674C114.811 5.56274 114.351 4.87724 113.774 4.29784C113.198 3.72104 112.516 3.25924 111.769 2.93714C110.988 2.60194 110.149 2.43204 109.301 2.43824H105.01V15.1102H109.301Z" fill="white"/>
<path d="M126.636 3.1273C126.472 3.0142 126.326 2.9065 126.203 2.8075C125.944 2.6 125.643 2.4538 125.319 2.38C125.086 2.3326 124.848 2.3112 124.611 2.3165C124.21 2.3142 123.809 2.3848 123.434 2.5249C123.077 2.6559 122.745 2.8458 122.452 3.0867C122.178 3.314 121.95 3.5939 121.785 3.9099C121.623 4.2161 121.537 4.5578 121.538 4.9044C121.528 5.2393 121.58 5.5732 121.694 5.8884C121.808 6.1573 121.991 6.3912 122.225 6.5668C122.523 6.793 122.851 6.9769 123.2 7.1127C123.602 7.2799 124.101 7.4671 124.694 7.6744C125.009 7.7921 125.304 7.8993 125.578 7.9959C125.849 8.0948 126.11 8.1973 126.349 8.2996C126.582 8.3977 126.809 8.5081 127.029 8.63C127.24 8.749 127.442 8.8831 127.634 9.0311C128.116 9.3904 128.485 9.8811 128.695 10.4443C128.903 11.0318 129.006 11.6513 129 12.2744C129.009 12.8994 128.873 13.518 128.603 14.0816C128.347 14.6067 127.983 15.0715 127.534 15.4454C127.066 15.8295 126.53 16.1214 125.953 16.3057C125.327 16.5096 124.672 16.6104 124.013 16.6043C122.679 16.6043 121.554 16.2086 120.64 15.417C120.411 15.2082 120.197 14.9814 120.003 14.7388C119.848 14.5432 119.706 14.3372 119.581 14.1223L119.74 14.0268C119.944 13.9015 120.176 13.8314 120.415 13.8237C120.581 13.8229 120.747 13.8462 120.908 13.8926C121.066 13.9402 121.21 14.0271 121.326 14.1452C121.571 14.3787 121.839 14.5881 122.124 14.7706C122.335 14.9029 122.562 15.0108 122.797 15.0921C122.996 15.1567 123.201 15.1975 123.408 15.214C123.604 15.2281 123.805 15.2387 124.013 15.2458C124.448 15.2596 124.882 15.2108 125.303 15.1009C125.722 14.9986 126.117 14.8188 126.47 14.571C126.818 14.3249 127.107 14.0052 127.317 13.6347C127.545 13.2194 127.658 12.7512 127.645 12.278C127.665 11.7937 127.578 11.3111 127.388 10.8648C127.227 10.5244 126.983 10.229 126.68 10.0044C126.35 9.7693 125.987 9.5837 125.603 9.4533C125.189 9.3061 124.743 9.14 124.265 8.9551C123.658 8.7131 123.105 8.487 122.605 8.2821C122.146 8.0985 121.717 7.8517 121.326 7.5489C120.974 7.27 120.691 6.9132 120.5 6.5067C120.286 5.9999 120.186 5.4523 120.206 4.9027C120.2 4.3363 120.335 3.7771 120.603 3.2775C120.86 2.7999 121.207 2.3765 121.626 2.0302C122.047 1.6833 122.526 1.4119 123.041 1.2283C123.546 1.0439 124.081 0.948232 124.619 0.945632C125.035 0.940382 125.45 0.999932 125.847 1.1223C126.199 1.2322 126.536 1.3829 126.852 1.5709C127.148 1.7466 127.425 1.9526 127.678 2.1857C127.923 2.4143 128.15 2.6392 128.358 2.8605L128.025 3.0955C127.935 3.1611 127.837 3.2134 127.731 3.2509C127.601 3.2928 127.465 3.3125 127.328 3.3093C127.084 3.3178 126.844 3.2545 126.636 3.1273Z" fill="white"/>
<path d="M14.6784 8.24218V14.676C14.307 15.05 13.8844 15.3705 13.4243 15.6282C12.9752 15.8789 12.4997 16.079 12.0068 16.2247C11.5041 16.3721 10.9887 16.4722 10.4673 16.5239C9.93111 16.5785 9.39241 16.6057 8.85342 16.6052C7.80421 16.6136 6.76461 16.4063 5.79901 15.9964C4.86751 15.5997 4.01891 15.0318 3.29751 14.322C2.58011 13.609 2.00701 12.7648 1.60901 11.8353C1.19481 10.8703 0.984814 9.83008 0.992514 8.78018C0.984614 7.39068 1.35181 6.02458 2.05541 4.82618C2.40011 4.24518 2.81681 3.70988 3.29571 3.23318C4.25951 2.27438 5.45601 1.58218 6.76811 1.22428C7.44791 1.03708 8.15011 0.943684 8.85501 0.946344C9.42181 0.945474 9.98641 1.01018 10.5381 1.13928C11.0882 1.26708 11.6229 1.45408 12.1327 1.69668C12.6457 1.94538 13.1336 2.24168 13.5906 2.58178C14.0581 2.92738 14.4924 3.31488 14.8897 3.73938L14.2441 4.39248C14.0618 4.59238 13.8382 4.75048 13.5887 4.85598C13.3387 4.96138 13.0695 5.01148 12.7985 5.00318C12.4073 5.00638 12.0241 4.88688 11.704 4.66158C11.2957 4.38118 10.8495 4.16068 10.3787 4.00658C9.88901 3.84798 9.37702 3.76858 8.86222 3.77118C8.19232 3.76878 7.52901 3.90368 6.91341 4.16768C5.70161 4.67338 4.73151 5.62618 4.20461 6.82798C3.93591 7.44168 3.79891 8.10489 3.80241 8.77489C3.79711 9.45639 3.93972 10.1309 4.22042 10.7519C4.63422 11.6614 5.30121 12.4327 6.14201 12.9734C6.98271 13.5142 7.96141 13.8018 8.96131 13.8016C9.30241 13.7936 9.64271 13.7646 9.98011 13.7149C10.2986 13.6671 10.6141 13.5996 10.9244 13.5131C11.2488 13.4237 11.5593 13.2902 11.8474 13.1167V10.9591L10.9616 10.9432C10.6956 10.9442 10.4326 10.8874 10.1909 10.7767C9.95491 10.6616 9.76421 10.471 9.64881 10.2352C9.49211 9.88028 9.42221 9.49318 9.44511 9.10588V8.24739L14.6784 8.24218Z" fill="white"/>
</svg>
